<svg id="Layer_1" data-name="Layer 1" xmlns="http://www.w3.org/2000/svg" width="456" height="74" viewBox="0 0 456 74">
  <path d="M46.66,15,36.91,40.33,26.81,15H21.23L36.71,51.78,52.2,15Zm20.19-1.45L51.52,50.13h4.66l3.73-9.22h13.5l3.64,9.22h5.43L67.14,13.59ZM61.61,36.83,66.81,24l5,12.81ZM94,15h-4.7V50.13h22.57V45.57H94Zm30.44,19.71h16.16V30.23H124.42V19.56h18.1V15H119.71V50.13H143.2V45.57H124.42ZM172,31.88a12.54,12.54,0,0,0,1.44-6A10.51,10.51,0,0,0,171.83,20a10.06,10.06,0,0,0-4.41-3.72A15.54,15.54,0,0,0,161,15h-9.37V50.13h4.71V37.22h5.2a8.64,8.64,0,0,0,1.16,0l8.25,13h5.49L167.61,36A9.24,9.24,0,0,0,172,31.88Zm-10.55.78h-5.1V19.56h5.44a7,7,0,0,1,3.86,1,6,6,0,0,1,2.23,2.5,7.12,7.12,0,0,1,.7,3.06,6.92,6.92,0,0,1-1.67,4.56Q165.23,32.67,161.45,32.66ZM188.63,15h-4.71V50.13h4.71Zm15,19.71h16.17V30.23H203.67V19.56h18.11V15H199V50.13h23.49V45.57H203.67Zm60.14,3.64L246.53,13.93h-.05v36.2H251V28.05l12.67,17.67h.1l12.91-18.3V50.13h4.66V13.93h-.05Zm39.75-24.8L288.22,50.13h4.66l3.74-9.22h13.49l3.64,9.22h5.44L303.85,13.59Zm-5.24,23.24L303.51,24l5,12.81Zm48.12-19.19A20.68,20.68,0,0,0,335.59,15H326V50.13h11.31A18.1,18.1,0,0,0,345.93,48a16.28,16.28,0,0,0,6.36-6,17,17,0,0,0,2.38-9,19.78,19.78,0,0,0-2-8.66A15.71,15.71,0,0,0,346.44,17.64Zm1.65,22A11.33,11.33,0,0,1,343.31,44a15.3,15.3,0,0,1-6.94,1.53h-5.68v-26h6.11a13.92,13.92,0,0,1,6.44,1.53A11.76,11.76,0,0,1,348,25.57a13.5,13.5,0,0,1,1.79,7.09A13.36,13.36,0,0,1,348.09,39.6Zm14.73,10.53h4.71V15h-4.71Zm31.09-17.88a24.76,24.76,0,0,0-4.59-2.11,25.2,25.2,0,0,1-5.61-2.75,4.37,4.37,0,0,1-.29-7.08A7.27,7.27,0,0,1,388,19a14.31,14.31,0,0,1,4,.63,21,21,0,0,1,4,1.65l1.79-3.64a20.66,20.66,0,0,0-10.53-2.81,11.52,11.52,0,0,0-7.5,2.69,8.51,8.51,0,0,0-2.89,6.68,7.57,7.57,0,0,0,1.41,4.68,10.42,10.42,0,0,0,3.38,2.94A40,40,0,0,0,386.6,34a19.37,19.37,0,0,1,5,2.69,4.71,4.71,0,0,1,1.77,3.86,4.92,4.92,0,0,1-2.11,4.32,8.48,8.48,0,0,1-4.93,1.46,13.48,13.48,0,0,1-4.71-1,17.26,17.26,0,0,1-4.32-2.3l-2.08,3.73a21.28,21.28,0,0,0,5.29,2.65,19.08,19.08,0,0,0,6.26,1,13.4,13.4,0,0,0,6.09-1.31,9.71,9.71,0,0,0,4-3.59,9.5,9.5,0,0,0,1.41-5.1A9.61,9.61,0,0,0,397,35.4,9.35,9.35,0,0,0,393.91,32.25ZM431,17.11a17.47,17.47,0,0,0-17.88,0,18.35,18.35,0,0,0-6.53,6.57,17.3,17.3,0,0,0-2.43,8.93A17.91,17.91,0,0,0,431,48.12a18,18,0,0,0,6.57-6.53,17.65,17.65,0,0,0,0-17.91A18.57,18.57,0,0,0,431,17.11Zm2.45,22.22a12.79,12.79,0,0,1-4.71,4.86,13.09,13.09,0,0,1-13.2,0,13.08,13.08,0,0,1-4.78-4.85A13.22,13.22,0,0,1,409,32.66a13.7,13.7,0,0,1,1.73-6.75A13,13,0,0,1,415.48,21a12.47,12.47,0,0,1,6.6-1.82,12.72,12.72,0,0,1,6.6,1.79,13.12,13.12,0,0,1,4.76,4.91,14,14,0,0,1,0,13.46ZM474.06,15l.1,25.39L448.43,14h-.24V50.13H453l-.1-25L478.62,51.3h.15V15ZM152.21,84.28h2.69V75.77H163V73.19H154.9V66.81h9.21V64.23h-11.9Zm16.48,0h2.69v-20h-2.69Zm23.43-5.55-14.7-15.11h-.14V84.28H180L180,70l14.72,15h.09V64.23h-2.69Zm11.23-3.24h9.24V72.91h-9.24v-6.1H213.7V64.23h-13v20h13.43V81.67H203.35Zm26.13,5.07a5.44,5.44,0,0,1-1.21,3.82A4.57,4.57,0,0,1,225,85.81v2.6a7.67,7.67,0,0,0,3.71-1,6.58,6.58,0,0,0,2.54-2.66,8.73,8.73,0,0,0,.91-4.12V64.23h-2.69Zm11.29-5.07H250V72.91h-9.23v-6.1h10.34V64.23h-13v20H251.5V81.67H240.77Zm31.7,3.11-5.58-14.29h-2.66l2.14,5.49-3.47,9.1-5.19-14.59h-3.13l8,20.91,5.13-12,4.68,12,7.91-20.86H277.4Zm14.64-3.11h9.24V72.91h-9.24v-6.1h10.35V64.23h-13v20h13.42V81.67H287.11Zm18.25-11.26h-2.69v20h12.9V81.67H305.36Zm26.33,9.62a7.13,7.13,0,0,0,.82-3.41,6,6,0,0,0-.91-3.37A5.73,5.73,0,0,0,329.07,65a8.85,8.85,0,0,0-3.66-.72h-5.35v20h2.69V76.9h3l.66,0,4.72,7.4h3.13l-5.05-8.07A5.29,5.29,0,0,0,331.69,73.85Zm-6,.45h-2.91V66.81h3.11a4,4,0,0,1,2.2.57,3.44,3.44,0,0,1,1.28,1.43,4.17,4.17,0,0,1,.4,1.74,3.94,3.94,0,0,1-1,2.61A3.87,3.87,0,0,1,325.66,74.3Zm18.5.25-5.52-10.32h-3.33l7.44,13.37v6.68h2.69V77.6L353,64.23h-3.3Z" transform="translate(-21.23 -13.59)" fill="#1c4047"/>
</svg>
