<svg id="Layer_1" data-name="Layer 1" xmlns="http://www.w3.org/2000/svg" width="24" height="24" viewBox="0 0 24 24">
  <line x1="5.4" y1="5.08" x2="7.78" y2="6.93" fill="none" stroke="#714457" stroke-linecap="round" stroke-linejoin="bevel"/>
  <line x1="7.46" y1="3.03" x2="9.09" y2="5.4" fill="none" stroke="#714457" stroke-linecap="round" stroke-linejoin="bevel"/>
  <line x1="18.6" y1="5.08" x2="16.21" y2="6.93" fill="none" stroke="#714457" stroke-linecap="round" stroke-linejoin="bevel"/>
  <line x1="16.54" y1="3.03" x2="14.9" y2="5.4" fill="none" stroke="#714457" stroke-linecap="round" stroke-linejoin="bevel"/>
  <line x1="5.4" y1="19.43" x2="7.78" y2="17.58" fill="none" stroke="#714457" stroke-linecap="round" stroke-linejoin="bevel"/>
  <line x1="7.46" y1="21.49" x2="9.09" y2="19.11" fill="none" stroke="#714457" stroke-linecap="round" stroke-linejoin="bevel"/>
  <line x1="18.6" y1="19.43" x2="16.21" y2="17.58" fill="none" stroke="#714457" stroke-linecap="round" stroke-linejoin="bevel"/>
  <line x1="16.54" y1="21.49" x2="14.9" y2="19.11" fill="none" stroke="#714457" stroke-linecap="round" stroke-linejoin="bevel"/>
  <polygon points="16.53 21.48 7.46 21.48 5.4 19.43 5.4 5.08 7.46 3.02 16.53 3.02 18.59 5.08 18.59 19.43 16.53 21.48" fill="none" stroke="#714457" stroke-linecap="round" stroke-linejoin="bevel" stroke-width="2"/>
  <polygon points="16.53 21.48 7.46 21.48 5.4 19.43 5.4 5.08 7.46 3.02 16.53 3.02 18.59 5.08 18.59 19.43 16.53 21.48" fill="none" stroke="#714457" stroke-linecap="round" stroke-linejoin="bevel"/>
  <polygon points="14.9 19.11 9.09 19.11 7.78 17.58 7.78 6.93 9.09 5.4 14.9 5.4 16.21 6.93 16.21 17.58 14.9 19.11" fill="none" stroke="#714457" stroke-linecap="round" stroke-linejoin="bevel"/>
</svg>
