<svg id="Layer_1" data-name="Layer 1" xmlns="http://www.w3.org/2000/svg" width="20" height="20" viewBox="0 0 20 20">
  <line x1="3.4" y1="3.08" x2="5.78" y2="4.93" fill="none" stroke="#714457" stroke-linecap="round" stroke-linejoin="bevel"/>
  <line x1="5.46" y1="1.03" x2="7.09" y2="3.4" fill="none" stroke="#714457" stroke-linecap="round" stroke-linejoin="bevel"/>
  <line x1="16.6" y1="3.08" x2="14.21" y2="4.93" fill="none" stroke="#714457" stroke-linecap="round" stroke-linejoin="bevel"/>
  <line x1="14.54" y1="1.03" x2="12.9" y2="3.4" fill="none" stroke="#714457" stroke-linecap="round" stroke-linejoin="bevel"/>
  <line x1="3.4" y1="17.43" x2="5.78" y2="15.58" fill="none" stroke="#714457" stroke-linecap="round" stroke-linejoin="bevel"/>
  <line x1="5.46" y1="19.49" x2="7.09" y2="17.11" fill="none" stroke="#714457" stroke-linecap="round" stroke-linejoin="bevel"/>
  <line x1="16.6" y1="17.43" x2="14.21" y2="15.58" fill="none" stroke="#714457" stroke-linecap="round" stroke-linejoin="bevel"/>
  <line x1="14.54" y1="19.49" x2="12.9" y2="17.11" fill="none" stroke="#714457" stroke-linecap="round" stroke-linejoin="bevel"/>
  <polygon points="14.53 19.48 5.46 19.48 3.4 17.43 3.4 3.08 5.46 1.02 14.53 1.02 16.59 3.08 16.59 17.43 14.53 19.48" fill="none" stroke="#714457" stroke-linecap="round" stroke-linejoin="bevel" stroke-width="2"/>
  <polygon points="14.53 19.48 5.46 19.48 3.4 17.43 3.4 3.08 5.46 1.02 14.53 1.02 16.59 3.08 16.59 17.43 14.53 19.48" fill="none" stroke="#714457" stroke-linecap="round" stroke-linejoin="bevel"/>
  <polygon points="12.9 17.11 7.09 17.11 5.78 15.58 5.78 4.93 7.09 3.4 12.9 3.4 14.21 4.93 14.21 15.58 12.9 17.11" fill="none" stroke="#714457" stroke-linecap="round" stroke-linejoin="bevel"/>
</svg>
