<svg id="Layer_1" data-name="Layer 1" xmlns="http://www.w3.org/2000/svg" width="20" height="20" viewBox="0 0 20 20">
  <g>
    <path d="M10,.84A6.79,6.79,0,0,0,3.21,7.62c0,3.45,5.39,10.38,6,11.16l.79,1,.79-1c.61-.78,6-7.71,6-11.16A6.79,6.79,0,0,0,10,.84Zm0,15.67c-2.11-2.84-4.79-7-4.79-8.89a4.79,4.79,0,0,1,9.58,0C14.79,9.46,12.11,13.67,10,16.51Z" fill="#714457"/>
    <path d="M10,4.18a3.41,3.41,0,1,0,3.41,3.41A3.41,3.41,0,0,0,10,4.18ZM10,9a1.41,1.41,0,1,1,1.41-1.41A1.41,1.41,0,0,1,10,9Z" fill="#714457"/>
  </g>
</svg>
