<svg id="Layer_1" data-name="Layer 1" xmlns="http://www.w3.org/2000/svg" width="24" height="24" viewBox="0 0 24 24">
  <path d="M11.87,16.23a3.69,3.69,0,0,1,1.34,2.22,3.7,3.7,0,0,1-2.48-.79,3.66,3.66,0,0,1-1.34-2.22A3.72,3.72,0,0,1,11.87,16.23Z" fill="none" stroke="#714457" stroke-miterlimit="10" stroke-width="2"/>
  <path d="M10.43,9.08a4.55,4.55,0,0,1,1.65,2.73A4.52,4.52,0,0,1,7.39,8.12,4.58,4.58,0,0,1,10.43,9.08Z" fill="none" stroke="#714457" stroke-miterlimit="10" stroke-width="2"/>
  <path d="M13.33,6.4a3.69,3.69,0,0,0-.78,2.48,3.69,3.69,0,0,0,3-3.82A3.71,3.71,0,0,0,13.33,6.4Z" fill="none" stroke="#714457" stroke-miterlimit="10" stroke-width="2"/>
  <path d="M13.57,21.53A106.11,106.11,0,0,0,11.51,4.11" fill="none" stroke="#714457" stroke-miterlimit="10" stroke-width="2"/>
  <line x1="12.08" y1="11.81" x2="9.13" y2="9.48" fill="none" stroke="#714457" stroke-miterlimit="10"/>
  <path d="M14.42,11.86a4.49,4.49,0,0,0-1,3,4.52,4.52,0,0,0,3.7-4.68A4.5,4.5,0,0,0,14.42,11.86Z" fill="none" stroke="#714457" stroke-miterlimit="10" stroke-width="2"/>
  <line x1="13.45" y1="14.89" x2="15.78" y2="11.94" fill="none" stroke="#714457" stroke-miterlimit="10"/>
</svg>
